<?xml version="1.0" encoding="utf-8"?>
<!-- Generator: Adobe Illustrator 24.2.3, SVG Export Plug-In . SVG Version: 6.00 Build 0)  -->
<svg version="1.1" id="Layer_1" xmlns="http://www.w3.org/2000/svg" xmlns:xlink="http://www.w3.org/1999/xlink" x="0px" y="0px"
	 viewBox="0 0 105.26 45.94" style="enable-background:new 0 0 105.26 45.94;" xml:space="preserve">
<g>
	<path d="M6.8,44.68C4,43.84,1.73,42.53,0,40.75l4.9-8.14l0.36-0.58l0.72,0.43c0.1,0.34,0.23,0.68,0.4,1.04
		c0.17,0.36,0.56,0.8,1.19,1.33c1.15,0.77,2.4,1.42,3.74,1.94c1.34,0.53,2.74,0.82,4.18,0.86c1.01,0,1.91-0.07,2.7-0.21
		c0.79-0.14,1.48-0.37,2.05-0.69c0.58-0.32,1.02-0.77,1.33-1.35c0.31-0.58,0.47-1.28,0.47-2.11c0-0.43-0.06-0.86-0.18-1.31
		c-0.12-0.45-0.32-0.9-0.61-1.35c-0.29-0.45-0.73-0.91-1.33-1.39c-0.6-0.47-1.36-0.99-2.27-1.56c-0.91-0.57-2.06-1.16-3.46-1.77
		c-3.07-1.47-5.51-2.86-7.31-4.19s-3.1-2.78-3.89-4.37C2.2,15.77,1.8,13.87,1.8,11.64c0-2.18,0.66-4.14,1.98-5.89
		C5.1,4,6.89,2.6,9.14,1.56C11.4,0.52,13.87,0,16.56,0c2.06,0,3.95,0.22,5.65,0.65c1.7,0.43,3.29,1.08,4.75,1.94
		c1.46,0.86,2.82,1.97,4.07,3.31l-6.12,6.62l-0.43,0.5l-0.65-0.58c-0.05-0.38-0.12-0.76-0.22-1.12c-0.1-0.36-0.41-0.83-0.94-1.4
		c-0.77-0.67-1.58-1.12-2.45-1.33c-0.86-0.22-1.87-0.32-3.02-0.32c-0.82,0-1.56,0.08-2.23,0.25c-0.67,0.17-1.25,0.4-1.73,0.71
		c-0.48,0.31-0.85,0.65-1.12,1.03c-0.26,0.38-0.4,0.78-0.4,1.2c0,0.43,0.05,0.82,0.14,1.17c0.1,0.35,0.29,0.72,0.58,1.1
		c0.29,0.38,0.73,0.78,1.33,1.2c0.6,0.43,1.39,0.91,2.38,1.45c0.98,0.54,2.22,1.17,3.71,1.88c2.3,1.13,4.25,2.22,5.83,3.26
		c1.58,1.04,2.84,2.11,3.78,3.22c0.94,1.11,1.61,2.32,2.02,3.65c0.41,1.32,0.61,2.83,0.61,4.53c0,2.22-0.58,4.32-1.73,6.3
		s-2.95,3.6-5.4,4.85c-2.45,1.25-5.59,1.88-9.43,1.88C12.53,45.94,9.61,45.52,6.8,44.68z"/>
	<path d="M35.5,45.14V0.29h9.22l7.13,19.66L58.9,0.22h9.29v44.93h-8.57V15.48l-5.26,15.48h-5.33l-5.04-15.48v29.66H35.5z"/>
	<path d="M72.58,45.14V0.29h9.22l7.13,19.66l7.06-19.73h9.29v44.93H96.7V15.48l-5.26,15.48h-5.33l-5.04-15.48v29.66H72.58z"/>
</g>
<g>
	<path d="M650.03-38.67c-1.99-0.36-3.83-0.94-5.51-1.73c-1.68-0.79-3.22-1.84-4.61-3.13l4.03-7.78l0.29-0.58l0.65,0.36
		c0.14,0.34,0.3,0.71,0.47,1.12c0.17,0.41,0.54,0.88,1.12,1.4c1.34,1.01,2.82,1.78,4.43,2.3c1.61,0.53,3.44,0.79,5.51,0.79
		c1.05,0,1.96-0.1,2.7-0.31c0.74-0.2,1.32-0.48,1.73-0.82c0.41-0.35,0.61-0.72,0.61-1.13c0-0.46-0.16-0.85-0.47-1.18
		c-0.31-0.32-0.77-0.61-1.37-0.87c-0.6-0.25-1.38-0.52-2.34-0.8s-2.09-0.58-3.38-0.9c-2.4-0.6-4.48-1.34-6.23-2.22
		c-1.75-0.88-3.11-1.97-4.07-3.29c-0.96-1.32-1.44-2.9-1.44-4.74c0-1.89,0.6-3.6,1.8-5.12c1.2-1.52,2.84-2.75,4.93-3.67
		c2.09-0.92,4.48-1.38,7.16-1.38c1.3,0,2.58,0.11,3.85,0.32c1.27,0.22,2.48,0.53,3.64,0.94c1.15,0.41,2.25,0.94,3.31,1.58
		c1.06,0.65,2.04,1.4,2.95,2.27l-4.68,6.84l-0.43,0.58l-0.65-0.5c-0.05-0.38-0.16-0.74-0.32-1.08c-0.17-0.33-0.54-0.77-1.12-1.3
		c-0.91-0.62-1.91-1.07-2.99-1.33c-1.08-0.26-2.22-0.4-3.42-0.4c-1.39,0-2.62,0.18-3.67,0.55c-1.06,0.36-1.58,0.91-1.58,1.64
		c0,0.55,0.29,1.02,0.86,1.39c0.58,0.37,1.43,0.7,2.56,1c1.13,0.3,2.53,0.63,4.21,1c2.69,0.55,4.9,1.31,6.62,2.25
		c1.73,0.95,3.01,2.09,3.85,3.43c0.84,1.34,1.26,2.88,1.26,4.64c0,1.85-0.55,3.57-1.66,5.16c-1.1,1.59-2.7,2.86-4.79,3.81
		c-2.09,0.95-4.6,1.42-7.52,1.42C654.12-38.13,652.02-38.31,650.03-38.67z"/>
	<path d="M673.25-38.71v-32.9h8.21v2.02c0.58-0.72,1.15-1.27,1.73-1.66c0.58-0.38,1.16-0.66,1.76-0.83c0.6-0.17,1.19-0.25,1.76-0.25
		c0.72,0,1.42,0.1,2.09,0.29c0.67,0.19,1.32,0.54,1.94,1.04c0.62,0.5,1.15,1.26,1.58,2.27c0.58-0.91,1.18-1.62,1.8-2.12
		s1.36-0.88,2.2-1.12c0.84-0.24,1.79-0.36,2.84-0.36c1.3,0,2.39,0.22,3.28,0.66c0.89,0.44,1.62,1.08,2.2,1.92
		c0.58,0.84,1,1.88,1.26,3.14c0.26,1.26,0.4,2.7,0.4,4.32v23.58h-8.57v-21.79c0-1.06-0.04-1.92-0.11-2.59s-0.19-1.16-0.36-1.49
		s-0.44-0.48-0.83-0.48c-0.43,0-0.86,0.2-1.3,0.59c-0.43,0.39-0.78,1.01-1.04,1.87c-0.26,0.85-0.4,1.99-0.4,3.42v20.47h-7.85v-21.73
		c0-1.98-0.12-3.3-0.36-3.94c-0.24-0.65-0.62-0.97-1.15-0.97c-0.38,0-0.73,0.12-1.04,0.35c-0.31,0.23-0.58,0.59-0.79,1.07
		c-0.22,0.48-0.38,1.08-0.5,1.8c-0.12,0.72-0.18,1.53-0.18,2.46v20.97H673.25z"/>
	<path d="M709.97-38.71v-32.9h8.21v2.02c0.58-0.72,1.15-1.27,1.73-1.66c0.58-0.38,1.16-0.66,1.76-0.83c0.6-0.17,1.19-0.25,1.76-0.25
		c0.72,0,1.42,0.1,2.09,0.29c0.67,0.19,1.32,0.54,1.94,1.04c0.62,0.5,1.15,1.26,1.58,2.27c0.58-0.91,1.18-1.62,1.8-2.12
		s1.36-0.88,2.2-1.12c0.84-0.24,1.79-0.36,2.84-0.36c1.3,0,2.39,0.22,3.28,0.66c0.89,0.44,1.62,1.08,2.2,1.92
		c0.58,0.84,1,1.88,1.26,3.14c0.26,1.26,0.4,2.7,0.4,4.32v23.58h-8.57v-21.79c0-1.06-0.04-1.92-0.11-2.59s-0.19-1.16-0.36-1.49
		s-0.44-0.48-0.83-0.48c-0.43,0-0.86,0.2-1.3,0.59c-0.43,0.39-0.78,1.01-1.04,1.87c-0.26,0.85-0.4,1.99-0.4,3.42v20.47h-7.85v-21.73
		c0-1.98-0.12-3.3-0.36-3.94c-0.24-0.65-0.62-0.97-1.15-0.97c-0.38,0-0.73,0.12-1.04,0.35c-0.31,0.23-0.58,0.59-0.79,1.07
		c-0.22,0.48-0.38,1.08-0.5,1.8c-0.12,0.72-0.18,1.53-0.18,2.46v20.97H709.97z"/>
</g>
</svg>
